# xmcd
#
# Track frame offsets:
#	150
#	14310
#	30952
#	43657
#	60005
#	76660
#	92392
#	104600
#	120217
#	132672
#
# Disc length: 1985 seconds
#
# Revision: 1
# Processed by: cddbd v1.5.1PL0 Copyright (c) Steve Scherf et al.
# Submitted via: audiograbber 1.83.01
#
DISCID=6607bf0a
DTITLE=Exile - Greatest Hits
DYEAR=1986
DGENRE=Country
TTITLE0=Woke Up In Love
TTITLE1=I Don't Want To Be A Memory
TTITLE2=Give Me One More Chance
TTITLE3=She's A Miracle
TTITLE4=Hang On To Your Heart
TTITLE5=The Girl Can't Help It
TTITLE6=I Could Get Used To You
TTITLE7=Crazy For Your Love
TTITLE8=Super Love
TTITLE9=Kiss You All Over
EXTD=
EXTT0=
EXTT1=
EXTT2=
EXTT3=
EXTT4=
EXTT5=
EXTT6=
EXTT7=
EXTT8=
EXTT9=
PLAYORDER=
